<?xml version="1.0" encoding="utf-8"?>
<!-- Generator: Adobe Illustrator 25.3.1, SVG Export Plug-In . SVG Version: 6.00 Build 0)  -->
<svg version="1.1" id="Layer_1" xmlns="http://www.w3.org/2000/svg" xmlns:xlink="http://www.w3.org/1999/xlink" x="0px" y="0px"
	 viewBox="0 0 1366 297.61"  xml:space="preserve">
<style type="text/css">
	
	.st1{fill:#303076;}
	.st2{fill:#303076;}
	.st3{fill:#3E51FE;}
	.st4{fill:#303076;}
</style>
<g>
	<g>
		<path fill="none" d="M0,297.61C0,198.41,0,99.2,0,0c455.33,0,910.67,0,1366,0c0,99.2,0,198.41,0,297.61
			C910.67,297.61,455.33,297.61,0,297.61z M154.1,38.91c-0.82,0-1.47,0-2.12,0c-7.33,0-14.66,0.06-21.99-0.05
			c-1.63-0.02-2.26,0.52-2.76,2c-8.98,26.27-18.01,52.53-27.04,78.79c-0.38,1.12-0.81,2.22-1.33,3.67c-0.4-0.99-0.66-1.59-0.88-2.21
			c-9.43-26.74-18.87-53.49-28.25-80.25c-0.51-1.45-1.12-2.04-2.77-2c-6.21,0.12-12.42,0.05-18.62,0.05c-1.9,0-3.8,0-5.79,0
			c0,35.92,0,71.63,0,107.37c5.98,0,11.87,0,17.91,0c0-27.54,0-54.93,0-82.33c0.13-0.03,0.26-0.06,0.39-0.09
			c9.89,27.49,19.79,54.98,29.69,82.49c5.25,0,10.39,0,15.57,0c9.91-27.53,19.8-55.01,29.69-82.5c0.17,0.04,0.35,0.08,0.52,0.11
			c0,27.44,0,54.89,0,82.33c6.05,0,11.89,0,17.79,0C154.1,110.54,154.1,74.87,154.1,38.91z M644.95,67.79
			c0.3,0.9,0.49,1.37,0.62,1.86c6.41,24.38,12.8,48.76,19.21,73.15c0.85,3.24,0.86,3.24,4.19,3.24c4.94,0,9.88,0,14.83,0
			c9.41-34.07,18.77-67.95,28.19-102.05c-5.8,0-11.14,0.04-16.49-0.03c-1.28-0.01-1.79,0.34-2.1,1.65
			c-5.22,21.63-10.51,43.24-15.78,64.85c-0.92,3.77-1.87,7.53-2.93,11.79c-0.31-0.89-0.47-1.25-0.56-1.63
			c-3.59-13.96-7.17-27.92-10.74-41.89c-2.81-10.97-5.6-21.94-8.46-32.89c-0.18-0.69-0.84-1.77-1.29-1.78
			c-5.8-0.12-11.6-0.08-17.47-0.08c-6.86,25.97-13.69,51.79-20.51,77.61c-0.61-0.7-0.82-1.32-0.96-1.94
			c-5.75-24.34-11.53-48.68-17.18-73.05c-0.51-2.18-1.36-2.78-3.52-2.69c-4.48,0.18-8.98,0.05-13.47,0.06
			c-0.56,0-1.13,0.06-1.86,0.11c8.98,34.07,17.92,67.98,26.84,101.82c6.3,0,12.41,0,18.53,0
			C630.99,119.93,637.92,94.07,644.95,67.79z M397,92.3c0.48-3.65,1.88-6.74,4.89-8.96c5.48-4.03,18.06-4.45,23.88-0.79
			c3.5,2.2,4.89,5.36,4.45,9.41c-0.43,4.03-3.16,5.85-6.64,6.95c-0.56,0.18-1.15,0.32-1.73,0.41c-4.5,0.68-9.01,1.25-13.49,2.03
			c-5.51,0.96-11.13,1.65-16.45,3.25c-9.64,2.91-14.47,9.77-14.95,20.01c-0.45,9.72,4.18,17.34,13.14,21.2
			c9.62,4.15,19.33,3.16,29,0.08c4.25-1.35,8.01-3.63,11.24-6.58c0.21,0.1,0.3,0.11,0.31,0.15c0.14,0.37,0.28,0.74,0.39,1.12
			c1.03,3.76,3.44,6.11,7.18,7.17c5.37,1.53,10.59,0.52,15.77-0.96c0.29-0.08,0.69-0.52,0.69-0.79c0.05-3.72,0.03-7.44,0.03-11.12
			c-0.43-0.05-0.56-0.09-0.69-0.08c-6.64,0.67-7.56-0.14-7.56-6.75c-0.01-12.53,0.05-25.06-0.04-37.59
			c-0.02-2.54-0.21-5.19-0.92-7.6c-2.19-7.43-7.79-11.56-14.77-13.93c-8.83-2.99-17.89-2.92-27-1.38
			c-7.04,1.18-13.26,3.88-18.04,9.36c-3.83,4.39-5.59,9.54-5.75,15.4C385.72,92.3,391.31,92.3,397,92.3z M362.82,146.33
			c0-0.84,0-1.55,0-2.26c0-16.35,0.01-32.71-0.01-49.06c0-2.04-0.04-4.09-0.24-6.12c-0.74-7.92-3.91-14.43-11.05-18.56
			c-3.9-2.26-8.17-3.3-12.61-3.68c-9.7-0.83-18.13,1.85-24.81,9.18c-0.81,0.89-1.51,1.89-2.59,3.26c0-13.69,0-26.83,0-40.07
			c-5.77,0-11.34,0-16.98,0c0,35.85,0,71.6,0,107.29c5.73,0,11.31,0,16.98,0c0-0.84,0-1.56,0-2.28c0-14.44-0.04-28.88,0.01-43.32
			c0.05-12.31,8.66-22.32,21.94-20.42c4.97,0.71,8.89,2.93,10.36,7.87c1,3.36,1.63,6.96,1.68,10.46c0.18,15.16,0.08,30.33,0.08,45.5
			c0,0.71,0,1.42,0,2.22C351.35,146.33,356.94,146.33,362.82,146.33z M957.81,80.21c0.1-0.02,0.2-0.05,0.3-0.07
			c0.28,0.7,0.59,1.4,0.84,2.11c7.68,21.37,15.38,42.73,23,64.12c0.55,1.54,1.28,1.97,2.84,1.93c4.29-0.11,8.59-0.17,12.87,0.02
			c2.12,0.09,3.05-0.59,3.77-2.61c6.95-19.6,14.01-39.16,21.04-58.74c0.79-2.19,1.61-4.37,2.41-6.55c0.17,0.03,0.34,0.06,0.51,0.08
			c0,22.54,0,45.08,0,67.59c7.25,0,14.2,0,21.12,0c0-35.47,0-70.77,0-106.12c-9.53,0-18.89,0-28.41,0
			c-8.64,25.12-17.28,50.25-26.07,75.81c-9.02-25.55-17.9-50.71-26.74-75.75c-9.76,0-19.24,0-28.79,0c0,35.42,0,70.73,0,106.06
			c7.12,0,14.14,0,21.3,0C957.81,125.36,957.81,102.79,957.81,80.21z M534.31,122.01c-4.95,0-9.69,0.06-14.43-0.04
			c-1.36-0.03-1.93,0.44-2.44,1.66c-2.58,6.29-7.18,10.2-14.04,10.94c-2.92,0.31-5.95,0.34-8.85-0.06
			c-9.85-1.37-17.91-12.79-16.02-22.55c18.91,0,37.84,0,56.86,0c0.8-5.46,0.41-10.75-0.83-15.98
			c-3.51-14.77-14.45-26.25-29.31-28.94c-17.02-3.08-33.78,5.97-40.48,22.01c-4.3,10.31-4.73,20.86-2.24,31.58
			c1.97,8.47,6.16,15.66,13.3,20.88c6.86,5.02,14.66,7.01,23.06,6.98c12.46-0.05,22.99-4.19,30.45-14.61
			C531.84,130.38,533.52,126.49,534.31,122.01z M785.69,113.32c0.79-4.48,0.5-8.66-0.24-12.83c-2.97-16.67-15.69-29.57-32.88-30.29
			c-13.31-0.55-25.51,5.7-32.28,18.19c-5.5,10.15-6.21,20.95-3.93,32.05c1.6,7.77,5.1,14.51,11.29,19.67
			c7.93,6.6,17.27,8.54,27.25,7.74c9.21-0.74,17.24-4.21,23.34-11.44c3.28-3.89,5.47-8.29,6.5-13.56c-5.01,0-9.8-0.03-14.6,0.05
			c-0.41,0.01-1.02,0.59-1.19,1.04c-3.08,7.79-9.05,10.96-17.17,11.2c-14.29,0.42-20.65-11.47-20.04-21.83
			C749.68,113.32,767.61,113.32,785.69,113.32z M857.51,92.92c0.03-0.45,0.09-0.71,0.07-0.96c-0.04-0.46-0.09-0.92-0.18-1.37
			c-1.56-7.77-5.79-13.71-13.05-16.8c-12.6-5.37-25.33-4.96-37.74,0.8c-4.21,1.95-7.61,5.16-9.27,9.62
			c-3.21,8.65-1.52,20.19,10.37,25.09c5.02,2.06,10.43,3.16,15.68,4.67c4.99,1.43,10.1,2.52,14.95,4.31
			c4.19,1.54,5.72,4.48,5.45,8.45c-0.28,4.01-3.1,5.83-6.39,6.95c-5.16,1.76-10.51,1.96-15.82,0.8c-3.61-0.78-7-2.3-8.85-5.75
			c-1.03-1.93-1.56-4.13-2.35-6.31c-5.14,0-10.46,0-15.91,0c0.09,8.32,3.29,14.9,10.03,19.65c5.34,3.76,11.47,5.26,17.86,5.74
			c9.23,0.71,18.22-0.28,26.44-4.92c7.5-4.24,11.56-10.63,11.38-19.38c-0.19-9.13-5.2-14.92-13.46-17.81
			c-5.76-2.01-11.82-3.14-17.71-4.8c-4.17-1.17-8.37-2.33-12.38-3.92c-3.05-1.21-4.72-3.77-4.27-7.27c0.42-3.24,2.78-4.88,5.56-5.43
			c3.58-0.7,7.32-1.21,10.94-0.96c5.58,0.38,10.27,2.56,11.69,8.78c0.07,0.32,0.6,0.78,0.92,0.78
			C846.8,92.93,852.14,92.92,857.51,92.92z M280.56,117.19c-5.51,0-10.85-0.03-16.19,0.05c-0.42,0.01-0.97,0.64-1.21,1.11
			c-0.29,0.57-0.28,1.28-0.44,1.91c-1.74,6.65-5.28,11.86-12.18,13.83c-10.66,3.04-20-1.79-23.98-12.23
			c-2.69-7.02-2.88-14.33-1.8-21.63c1.37-9.22,6.17-19.53,19.87-20.1c6.77-0.28,12.75,1.55,16.42,7.78
			c1.17,1.99,1.72,4.35,2.57,6.58c5.55,0,11.2,0,16.86,0c-1.14-11.93-7.27-20.36-18.14-24.84c-7.5-3.09-15.33-3.81-23.31-2.73
			c-12.54,1.7-21.87,8.07-27.4,19.54c-4.42,9.18-5.38,18.94-4.13,28.94c1.05,8.44,3.88,16.23,10.04,22.28
			c11.99,11.78,26.47,13.34,41.67,8.36C272.7,141.65,278.21,130.53,280.56,117.19z M877.36,84.28c0,1,0,1.71,0,2.43
			c0,13.26-0.02,26.52,0.02,39.77c0.01,2.24,0.22,4.48,0.43,6.71c0.56,6.17,3.46,10.59,9.65,12.34c6.88,1.95,13.82,1.22,20.8,0.33
			c0-4.22,0-8.28,0-12.09c-2.86,0-5.61,0.08-8.36-0.02c-3.58-0.14-5.47-1.87-5.92-5.39c-0.23-1.76-0.31-3.55-0.32-5.32
			c-0.03-12.2-0.01-24.4-0.01-36.61c0-0.64,0-1.28,0-2.13c4.97,0,9.76,0,14.6,0c0-4.13,0-8.05,0-12.2c-4.89,0-9.67,0-14.62,0
			c0-7.46,0-14.68,0-22.01c-5.49,0-10.8,0-16.35,0c0,7.39,0,14.67,0,22.1c-4.18,0-8.12,0-12.11,0c0,4.09,0,8.01,0,12.08
			C869.22,84.28,873.16,84.28,877.36,84.28z M549.36,39.02c0,35.89,0,71.59,0,107.31c5.7,0,11.28,0,16.94,0c0-35.8,0-71.5,0-107.31
			C560.63,39.02,555.05,39.02,549.36,39.02z M1310.99,142.9c1.94,4.09,5.14,6.06,9.17,6.89c5.56,1.14,10.88-0.03,16.11-1.8
			c0.42-0.14,0.79-1.09,0.8-1.67c0.07-3.49,0.04-6.99,0.04-10.48c0-1.15,0-2.3,0-3.55c-1.01,0.21-1.71,0.43-2.43,0.5
			c-5.84,0.59-5.38,0.69-5.42-4.31c-0.1-11.93-0.02-23.87-0.04-35.8c0-1.71,0-3.45-0.29-5.12c-1.42-8.1-6.51-13.37-13.86-16.22
			c-12.52-4.86-25.25-4.61-37.65,0.37c-10.12,4.07-16.23,13.57-15.57,25.15c6.7,0,13.41,0,20.22,0c0.1-0.57,0.23-1.07,0.26-1.58
			c0.29-4.72,2.82-7.65,7.26-9.04c4.26-1.34,8.63-1.37,12.9-0.37c1.96,0.46,4.05,1.44,5.49,2.81c3.21,3.05,2,8.24-2.11,9.82
			c-1.58,0.61-3.29,0.96-4.97,1.23c-7.1,1.1-14.24,1.95-21.31,3.21c-12.04,2.15-18.87,8.96-20.41,19.93
			c-1.47,10.52,3.25,19.63,12.61,24.16c6.63,3.21,13.66,3.79,20.86,2.76C1299.18,148.87,1305.39,147.01,1310.99,142.9z
			 M1132.59,115.54c0.13-0.43,0.27-0.74,0.31-1.05c1.01-7.45,0.4-14.78-2.36-21.78c-5.69-14.44-16.03-23.32-31.77-24.48
			c-16.06-1.18-28.12,5.79-35.75,19.93c-5.07,9.4-5.92,19.57-4.32,29.99c1.21,7.85,4.14,14.92,9.57,20.88
			c12.96,14.22,38.18,14.38,51.69,3.64c7.04-5.6,11.08-12.87,12.47-21.92c-5.88,0-11.61,0.06-17.34-0.04
			c-1.61-0.03-2.41,0.39-2.97,1.99c-2,5.79-5.99,9.37-12.2,10.12c-1.82,0.22-3.69,0.23-5.53,0.14c-8.49-0.43-15.21-7.28-15.45-17.42
			C1096.8,115.54,1114.68,115.54,1132.59,115.54z M1194.42,42.02c0,11.33,0,22.49,0,33.98c-5.43-4.62-11.48-6.83-18.17-7.7
			c-14.26-1.84-27.34,4.86-33.78,17.67c-5.74,11.42-6.13,23.49-3.46,35.67c5.93,27.12,30.83,32.59,47.73,26.27
			c3-1.12,5.7-3.07,8.65-4.7c0,1.54,0,3.22,0,4.93c6.65,0,13.09,0,19.58,0c0-35.43,0-70.73,0-106.13
			C1208.15,42.02,1201.44,42.02,1194.42,42.02z M174.88,68.67c0,25.94,0,51.8,0,77.66c5.71,0,11.3,0,16.92,0
			c0-25.92,0-51.74,0-77.66C186.12,68.67,180.54,68.67,174.88,68.67z M287.24,242.39c0.12-0.01,0.24-0.02,0.36-0.03
			c0.31,0.93,0.57,1.88,0.93,2.79c3.35,8.47,8.95,14.44,18.38,15.72c11.38,1.55,20.68-2.66,27.86-11.26
			c9.57-11.46,12.55-24.87,10.27-39.44c-1.15-7.38-4.8-13.34-11.63-16.95c-9.61-5.08-23.76-3.2-32.03,4.36
			c-2.25,2.06-4.15,4.51-6.26,6.84c0.87-4.08,1.75-8.19,2.66-12.42c-1.78,0-3.29,0-4.98,0c-6.57,30.53-13.14,61.07-19.74,91.71
			c1.76,0,3.38,0,5.02,0C281.16,269.87,284.2,256.13,287.24,242.39z M192.37,259.53c6.68-31.34,13.33-62.53,20-93.85
			c-1.77,0-3.34,0-5.01,0c-2.98,13.92-5.95,27.81-8.95,41.82c-0.4-0.24-0.47-0.26-0.5-0.3c-0.06-0.11-0.11-0.24-0.13-0.36
			c-1.52-8.67-6.88-13.85-15.23-15.64c-12.78-2.74-23.46,1.49-31.9,11.19c-8.07,9.27-11.21,20.43-11.25,32.51
			c-0.05,13.97,8.1,24.69,21.98,26.09c9.01,0.91,17.07-1.27,23.3-8.21c2.2-2.45,3.99-5.25,6.12-8.09
			c-1.17,5.02-2.29,9.87-3.45,14.84C189.06,259.53,190.62,259.53,192.37,259.53z M550.36,207.35c-0.16-0.01-0.32-0.03-0.48-0.04
			c-0.07-0.17-0.16-0.34-0.2-0.51c-1.52-8.57-6.82-13.77-15.07-15.57c-12.85-2.8-23.63,1.39-32.07,11.2
			c-8.84,10.28-11.98,22.58-11.03,35.87c0.55,7.75,3.87,14.32,10.55,18.81c9.51,6.38,27.27,6.32,36.64-6.73
			c1.3-1.81,2.47-3.72,3.69-5.58c0.09,0.04,0.18,0.07,0.27,0.11c-1.13,4.84-2.25,9.69-3.39,14.57c1.76,0,3.38,0,5.01,0
			c6.67-31.32,13.32-62.5,19.99-93.79c-1.8,0-3.37,0-5.02,0C556.28,179.63,553.32,193.49,550.36,207.35z M1085.62,211.41
			c0.77,0,1.35,0,1.93,0c3.14,0.02,3.11,0.01,4.16-2.96c1.64-4.62,4.38-8.39,8.82-10.72c6.18-3.24,12.76-3.68,19.45-2.38
			c6.97,1.35,10.52,5.95,10.62,13.16c0.1,6.81-2.72,10.39-10.13,11.92c-4.43,0.91-9.01,1.22-13.54,1.57
			c-6.38,0.48-12.81,0.52-18.9,2.83c-11.28,4.29-15.87,17.97-9.49,28.21c2.87,4.61,7.26,6.77,12.39,7.59
			c11.18,1.78,20.91-1.05,28.77-9.44c0.9-0.97,1.61-2.11,2.41-3.18c0.06,1.52-0.24,2.86-0.38,4.22c-0.42,4.03,2.3,7.43,6.22,7.61
			c1.69,0.08,3.41-0.23,5.11-0.48c0.4-0.06,0.97-0.48,1.07-0.85c0.31-1.16,0.43-2.37,0.66-3.74c-0.75,0.17-1.2,0.28-1.64,0.37
			c-5.03,1.05-7.1-0.94-6.27-6.07c0.35-2.14,0.7-4.29,1.17-6.41c2.36-10.53,4.93-21.02,7.1-31.59c2.1-10.25-2.41-17.1-12.52-19.64
			c-7.74-1.95-15.34-1.25-22.71,1.64C1091.68,196.31,1087.55,202.87,1085.62,211.41z M360.31,226.32c18.14,0,36.12,0,54.61,0
			c0-5.13,0.38-10.08-0.08-14.96c-0.94-9.92-7.81-17.77-17.01-20.12c-12.43-3.17-26.55,1.93-34.07,12.33
			c-7.55,10.43-10.03,22.27-8.92,34.82c0.77,8.72,4.76,15.91,12.94,19.98c11.87,5.91,32.06,3.61,41.14-14.38
			c1.08-2.14,1.83-4.44,2.85-6.93c-1.25,0-2.04,0-2.83,0c-0.77,0-1.54,0-2.18,0c-3.79,11.24-11.32,17.93-22.84,19.51
			c-8.2,1.13-15.26-1.36-20.14-8.54C359.32,241.46,358.93,234.19,360.31,226.32z M570.34,226.33c18.14,0,36.12,0,54.61,0
			c0-5.13,0.38-10.08-0.08-14.96c-0.94-9.93-7.81-17.77-17.01-20.12c-12.42-3.17-26.55,1.93-34.07,12.33
			c-7.55,10.43-10.03,22.27-8.92,34.82c0.77,8.72,4.75,15.91,12.94,19.99c11.87,5.91,32.06,3.61,41.14-14.38
			c1.08-2.14,1.84-4.44,2.8-6.82c-1.98,0-3.53,0-5.05,0c-3.14,11.4-13.38,18.51-22.73,19.46c-8.25,0.84-15.27-1.42-20.15-8.59
			C569.35,241.46,568.96,234.19,570.34,226.33z M273.06,226.43c0-5.17,0.37-10.12-0.08-14.99c-0.92-9.93-7.74-17.79-16.94-20.18
			c-12.46-3.23-26.67,1.93-34.22,12.4c-7.18,9.97-9.64,21.26-8.99,33.27c0.68,12.56,8.56,22.32,21.67,24.02
			c15.71,2.04,30.46-7.32,34.85-22.54c0.11-0.4,0.09-0.83,0.14-1.28c-1.65,0-3.16,0-4.64,0c-0.12,0.25-0.22,0.42-0.28,0.6
			c-3.62,10.98-11.33,17.24-22.61,18.87c-7.26,1.05-13.87-0.93-18.69-6.75c-5.67-6.84-6.45-14.86-4.8-23.44
			C236.46,226.43,254.4,226.43,273.06,226.43z M835.57,233.21c0.18,1.91,0.26,4.16,0.61,6.36c1.35,8.4,5.09,15.3,13.19,18.91
			c12.26,5.46,28.16,3.36,38.58-9.4c8.56-10.48,11.65-22.75,10.72-36.02c-0.59-8.51-4.29-15.48-12.18-19.54
			c-9.83-5.05-25.51-4.82-36.64,5.55C840.05,208.2,836.05,219.78,835.57,233.21z M1187.74,236.65c0,2.27-0.15,4.38,0.03,6.45
			c0.63,7.6,4.46,12.96,11.61,15.74c5.5,2.13,11.28,2.63,17.13,2.17c5.84-0.46,11.23-2.15,15.81-6c7.92-6.65,10.73-21.45-3.24-28.17
			c-3.61-1.74-7.46-2.96-11.17-4.49c-3.34-1.37-6.82-2.54-9.94-4.32c-8.84-5.03-9-15.28-0.18-20.21c7.52-4.2,15.56-4.25,23.42-0.73
			c5.13,2.3,7.7,6.42,7.27,12.18c-0.07,0.97-0.01,1.94-0.01,2.98c1.61,0,3.15,0,4.66,0c1.84-7.91-1.02-14.85-7.95-18.32
			c-10.33-5.17-20.77-4.9-30.87,0.68c-6.96,3.85-9.94,13.1-6.8,20.28c1.76,4.02,5.12,6.54,8.95,8.27c4.01,1.81,8.21,3.2,12.33,4.74
			c4.15,1.55,8.24,3.18,11.53,6.3c3.98,3.79,4.6,10.49,1.39,14.8c-2.15,2.88-4.94,4.91-8.27,6.2c-6.81,2.63-13.61,1.81-20.35-0.27
			c-6.58-2.03-10.01-6.55-10.29-13.38c-0.07-1.62-0.01-3.25-0.01-4.91C1191.05,236.65,1189.54,236.65,1187.74,236.65z
			 M1287.78,236.73c-1.69,0-3.24,0-4.93,0c0,2.22-0.15,4.32,0.03,6.4c0.64,7.6,4.48,12.95,11.64,15.72
			c5.51,2.13,11.28,2.63,17.13,2.16c5.77-0.46,11.1-2.13,15.65-5.89c8.05-6.64,10.91-21.56-3.14-28.29
			c-3.61-1.73-7.46-2.96-11.17-4.49c-3.34-1.37-6.8-2.57-9.94-4.31c-9.29-5.15-8.39-15.95,0.03-20.34
			c7.68-4.01,15.75-4.16,23.63-0.4c4.85,2.31,7.27,6.32,6.9,11.82c-0.07,1.03-0.01,2.07-0.01,3.14c1.63,0,3.17,0,4.67,0
			c1.79-8.1-1.03-14.88-8.17-18.41c-10.35-5.12-20.81-4.81-30.85,0.89c-6.88,3.91-9.73,13.08-6.6,20.19
			c1.76,4.01,5.13,6.53,8.97,8.26c4.01,1.8,8.21,3.2,12.34,4.74c4.15,1.55,8.24,3.18,11.52,6.31c3.98,3.79,4.58,10.5,1.35,14.81
			c-2.16,2.88-4.94,4.92-8.28,6.18c-7.38,2.78-14.67,1.78-21.83-0.84c-5.03-1.84-7.88-5.61-8.58-10.89
			C1287.82,241.3,1287.88,239.06,1287.78,236.73z M954.18,259.54c4.79-22.55,9.55-44.99,14.33-67.47c-1.79,0-3.41,0-5.03,0
			c-2.17,10.3-4.26,20.49-6.47,30.65c-2.01,9.23-5.18,17.98-11.66,25.15c-5.82,6.43-12.8,10.06-21.78,8.66
			c-6.38-1-10.96-4.89-11.84-11.01c-0.49-3.38-0.23-7.01,0.41-10.39c1.75-9.11,3.88-18.15,5.88-27.21
			c1.16-5.26,2.35-10.52,3.56-15.9c-1.75,0-3.31,0-5,0c-0.84,3.73-1.72,7.44-2.5,11.17c-2.55,12.11-5.26,24.18-7.51,36.34
			c-1.64,8.85,3.07,16.94,11.31,20.19c5.76,2.27,11.69,1.78,17.5,0.12c6.62-1.89,11.25-6.38,14.94-11.98
			c0.43-0.65,0.86-1.29,1.29-1.93c0.16,0.09,0.33,0.18,0.49,0.26c-0.97,4.41-1.93,8.83-2.92,13.34
			C950.85,259.54,952.42,259.54,954.18,259.54z M121.16,259.56c0.98-4.29,1.92-8.39,2.84-12.5c0.94-4.17,1.95-8.33,2.78-12.53
			c1.58-7.94,3.39-15.85,4.51-23.85c1.37-9.79-5.96-18.8-15.78-19.98c-10.55-1.27-19.33,2.26-26.36,10.14
			c-1.5,1.68-2.81,3.55-4.58,5.8c1.14-5.23,2.16-9.88,3.2-14.63c-1.8,0-3.3,0-4.99,0c-4.77,22.49-9.55,44.97-14.33,67.51
			c1.83,0,3.39,0,5.02,0c1.81-8.59,3.72-17.06,5.37-25.58c1.92-9.91,4.62-19.49,10.85-27.68c5.86-7.7,13.25-12.41,23.38-11.32
			c9.31,1,14.68,7.82,13.09,17.09c-1.47,8.62-3.32,17.19-5.13,25.75c-1.53,7.25-3.23,14.46-4.88,21.79
			C117.9,259.56,119.47,259.56,121.16,259.56z M472.67,259.54c1.59-7.02,3.25-13.93,4.69-20.89c1.92-9.28,3.98-18.54,5.41-27.9
			c1.37-8.91-4.66-17.48-13.37-19.53c-9.66-2.28-18.35,0.08-25.72,6.65c-2.72,2.42-4.95,5.38-7.49,8.19
			c1.02-4.66,2.04-9.3,3.07-14.04c-1.77,0-3.33,0-4.99,0c-4.78,22.51-9.54,44.95-14.33,67.5c1.77,0,3.33,0,4.93,0
			c0.11-0.3,0.23-0.54,0.28-0.79c1.75-8.31,3.59-16.6,5.21-24.94c1.91-9.84,4.61-19.36,10.79-27.5
			c5.95-7.84,13.44-12.56,23.74-11.36c8.79,1.03,14.02,7.59,12.9,16.4c-0.53,4.18-1.24,8.34-2.13,12.46
			c-2.58,11.89-5.3,23.76-7.99,35.73C469.33,259.54,470.91,259.54,472.67,259.54z M644.71,192.03
			c-4.77,22.46-9.54,44.93-14.32,67.46c1.75,0,3.36,0,5.03,0c1.82-8.61,3.71-17.09,5.37-25.61c1.91-9.84,4.59-19.36,10.76-27.51
			c5.83-7.72,13.19-12.49,23.32-11.45c9.44,0.97,14.88,7.8,13.22,17.15c-1.84,10.36-4.12,20.65-6.28,30.95
			c-1.15,5.5-2.45,10.97-3.7,16.53c1.79,0,3.36,0,5,0c1.7-7.56,3.5-15.04,5.06-22.57c1.81-8.69,3.73-17.39,5.02-26.16
			c0.99-6.72-1.57-12.5-7.12-16.59c-6.6-4.88-13.96-4.57-21.37-2.42c-7.01,2.04-12.2,6.62-16.36,12.46
			c-0.46,0.64-0.89,1.29-1.34,1.94c-0.12-0.07-0.24-0.14-0.37-0.21c1.02-4.62,2.03-9.23,3.08-13.96
			C647.98,192.03,646.41,192.03,644.71,192.03z M1013.84,259.56c1.82-8.62,3.73-17.09,5.38-25.61c1.92-9.91,4.61-19.49,10.84-27.69
			c5.86-7.7,13.24-12.43,23.38-11.34c9.31,0.99,14.68,7.82,13.12,17.07c-1.35,8.04-3.05,16.03-4.74,24.02
			c-1.66,7.83-3.5,15.63-5.27,23.5c1.77,0,3.39,0,5.01,0c1.72-7.62,3.52-15.11,5.09-22.65c1.81-8.7,3.71-17.39,5.02-26.17
			c1.33-8.91-4.69-17.43-13.44-19.48c-9.59-2.25-18.22,0.08-25.56,6.57c-2.77,2.45-5.04,5.46-7.59,8.27
			c1.02-4.64,2.03-9.29,3.07-13.99c-1.81,0-3.36,0-4.99,0c-4.78,22.52-9.54,44.96-14.33,67.5
			C1010.6,259.56,1012.1,259.56,1013.84,259.56z M770.05,230.03c-1.18,4.33-1.52,8.72-1.27,13.14c0.42,7.48,3.93,13.06,10.77,16.22
			c6.53,3.02,13.43,3.02,20.35,1.61c6.99-1.43,12.45-5.26,15.6-11.64c2.17-4.39,3.99-9.07,5.12-13.82c3.8-16,7.23-32.09,10.79-48.15
			c1.59-7.18,3.14-14.37,4.73-21.66c-2.03,0-3.9,0-5.81,0c-3.09,14.12-6.11,28.14-9.24,42.13c-2.43,10.85-4.85,21.7-7.57,32.47
			c-1.21,4.83-3.54,9.26-7.6,12.43c-6.18,4.82-13.15,4.8-20.32,2.95c-3.13-0.81-5.86-2.37-7.98-4.85c-2.45-2.86-3.33-6.26-3.11-9.93
			c0.22-3.64,0.64-7.26,0.97-10.93C773.67,230.03,771.9,230.03,770.05,230.03z M1249.41,148.16c0-26.12,0-52.05,0-77.94
			c-6.9,0-13.65,0-20.36,0c0,26.06,0,51.94,0,77.94C1235.86,148.16,1242.56,148.16,1249.41,148.16z M1264.36,196.28
			c-0.83,3.83-1.61,7.36-2.37,10.89c-2.91,13.37-5.88,26.74-8.69,40.13c-1.41,6.7,1.88,11.5,8.39,12.14
			c3.51,0.35,7.07,0.06,10.56,0.06c0.37-1.82,0.64-3.14,0.94-4.63c-1.05,0.09-1.89,0.22-2.74,0.21c-2.7-0.03-5.42,0.12-8.08-0.23
			c-2.98-0.39-4.27-2.22-4.24-5.23c0.01-0.85,0.11-1.71,0.29-2.55c2.23-10.42,4.47-20.85,6.73-31.27c1.4-6.48,2.83-12.95,4.26-19.51
			c4.03,0,7.92-0.13,11.8,0.05c1.99,0.09,2.91-0.54,3.05-2.47c0.04-0.61,0.21-1.22,0.35-1.98c-4.86,0-9.52,0-14.38,0
			c1.53-7.09,3.03-14.01,4.55-21.07c-1.74,0-3.31,0-5,0c-1.53,7-3.06,13.98-4.62,21.13c-4.2,0-8.33,0-12.52,0
			c-0.34,1.5-0.65,2.83-0.99,4.32C1255.91,196.28,1259.99,196.28,1264.36,196.28z M714.57,196.31c-0.06,0.59-0.06,1.05-0.16,1.5
			c-1.09,4.95-2.2,9.89-3.28,14.84c-2.52,11.57-5.16,23.12-7.47,34.74c-1.14,5.75,0.89,11.93,9.65,12.18
			c3.08,0.08,6.17,0.01,9.25,0.01c0.39-1.83,0.67-3.16,1-4.7c-0.97,0.07-1.81,0.2-2.65,0.19c-2.76-0.03-5.55,0.12-8.27-0.23
			c-2.88-0.37-4.15-2.18-4.15-5.11c0-0.85,0.08-1.72,0.26-2.55c2.64-12.29,5.29-24.57,7.95-36.86c1.01-4.67,2.04-9.33,3.07-14.03
			c4.82,0,9.44,0,14.2,0c0.35-1.42,0.68-2.81,1.07-4.42c-4.88,0-9.59,0-14.46,0c1.54-7.13,3.03-14.04,4.54-21.04
			c-1.81,0-3.36,0-4.99,0c-1.55,7.06-3.08,14.04-4.62,21.1c-4.23,0-8.31,0-12.5,0c-0.34,1.46-0.66,2.83-1.01,4.38
			C706.34,196.31,710.42,196.31,714.57,196.31z M50.47,259.56c6.63-31.33,13.24-62.54,19.88-93.88c-2.08,0-3.84,0-5.81,0
			c-6.62,31.26-13.24,62.51-19.88,93.88C46.7,259.56,48.47,259.56,50.47,259.56z M976.07,259.53c0.12-0.25,0.24-0.42,0.28-0.6
			c1.76-8.11,3.44-16.23,5.27-24.32c1.97-8.74,3.98-17.48,8.67-25.28c3.25-5.4,7.27-10.05,13.31-12.49
			c3.88-1.57,7.93-1.73,12.14-0.99c0.46-1.7,0.89-3.33,1.32-4.94c-2.85-0.92-8.12-0.68-12.22,0.65
			c-8.11,2.63-13.07,8.74-17.48,15.66c1.13-5.02,2.26-10.05,3.4-15.15c-1.73,0-3.34,0-5,0c-4.87,22.53-9.72,44.95-14.59,67.47
			C972.96,259.53,974.52,259.53,976.07,259.53z M1147.79,259.57c6.55-31.37,13.07-62.56,19.62-93.88c-1.79,0-3.35,0-5.03,0
			c-6.54,31.3-13.07,62.53-19.62,93.88C1144.58,259.57,1146.09,259.57,1147.79,259.57z M1179.03,192.02
			c-4.71,22.59-9.38,45.01-14.06,67.5c1.83,0,3.38,0,5.02,0c4.69-22.52,9.37-44.96,14.07-67.5
			C1182.32,192.02,1180.75,192.02,1179.03,192.02z M191.8,39.04c-5.7,0-11.32,0-16.94,0c0,5.43,0,10.73,0,16.09
			c5.69,0,11.26,0,16.94,0C191.8,49.73,191.8,44.43,191.8,39.04z M1229.04,42.03c0,6.59,0,13.02,0,19.53c6.86,0,13.62,0,20.41,0
			c0-6.57,0-13,0-19.53C1242.64,42.03,1235.93,42.03,1229.04,42.03z M1184.57,165.69c-0.91,4.48-1.8,8.93-2.71,13.43
			c1.83,0,3.38,0,5,0c0.91-4.5,1.81-8.91,2.73-13.43C1187.82,165.69,1186.26,165.69,1184.57,165.69z"/>
		<path class="st1" d="M154.1,38.91c0,35.95,0,71.62,0,107.41c-5.9,0-11.74,0-17.79,0c0-27.44,0-54.89,0-82.33
			c-0.17-0.04-0.35-0.08-0.52-0.11c-9.89,27.48-19.79,54.97-29.69,82.5c-5.18,0-10.32,0-15.57,0c-9.9-27.51-19.8-55-29.69-82.49
			c-0.13,0.03-0.26,0.06-0.39,0.09c0,27.39,0,54.79,0,82.33c-6.04,0-11.93,0-17.91,0c0-35.75,0-71.46,0-107.37c2,0,3.9,0,5.79,0
			c6.21,0,12.42,0.07,18.62-0.05c1.65-0.03,2.26,0.55,2.77,2c9.39,26.76,18.82,53.5,28.25,80.25c0.22,0.61,0.48,1.21,0.88,2.21
			c0.53-1.44,0.95-2.55,1.33-3.67c9.03-26.26,18.06-52.51,27.04-78.79c0.5-1.48,1.13-2.02,2.76-2c7.33,0.11,14.66,0.05,21.99,0.05
			C152.62,38.91,153.27,38.91,154.1,38.91z"/>
		<path class="st2" d="M644.95,67.79c-7.04,26.28-13.97,52.14-20.92,78.12c-6.12,0-12.23,0-18.53,0
			c-8.92-33.84-17.86-67.74-26.84-101.82c0.73-0.04,1.3-0.1,1.86-0.11c4.49-0.01,8.99,0.12,13.47-0.06
			c2.16-0.09,3.01,0.51,3.52,2.69c5.66,24.36,11.43,48.7,17.18,73.05c0.15,0.63,0.35,1.24,0.96,1.94
			c6.82-25.82,13.65-51.65,20.51-77.61c5.87,0,11.67-0.04,17.47,0.08c0.46,0.01,1.12,1.1,1.29,1.78
			c2.86,10.95,5.65,21.93,8.46,32.89c3.58,13.96,7.16,27.93,10.74,41.89c0.1,0.37,0.25,0.73,0.56,1.63c1.06-4.26,2-8.03,2.93-11.79
			c5.28-21.61,10.56-43.22,15.78-64.85c0.32-1.31,0.83-1.67,2.1-1.65c5.34,0.06,10.69,0.03,16.49,0.03
			c-9.42,34.1-18.78,67.98-28.19,102.05c-4.95,0-9.89,0-14.83,0c-3.33,0-3.34,0-4.19-3.24c-6.4-24.38-12.8-48.76-19.21-73.15
			C645.44,69.16,645.25,68.69,644.95,67.79z"/>
		<path class="st1" d="M397,92.3c-5.69,0-11.28,0-17.07,0c0.16-5.86,1.93-11.01,5.75-15.4c4.78-5.48,11.01-8.18,18.04-9.36
			c9.11-1.53,18.16-1.6,27,1.38c6.98,2.36,12.58,6.5,14.77,13.93c0.71,2.42,0.9,5.06,0.92,7.6c0.09,12.53,0.03,25.06,0.04,37.59
			c0.01,6.61,0.92,7.42,7.56,6.75c0.12-0.01,0.25,0.03,0.69,0.08c0,3.68,0.02,7.4-0.03,11.12c0,0.27-0.4,0.71-0.69,0.79
			c-5.18,1.48-10.39,2.49-15.77,0.96c-3.74-1.07-6.15-3.41-7.18-7.17c-0.1-0.38-0.25-0.75-0.39-1.12c-0.01-0.04-0.1-0.05-0.31-0.15
			c-3.23,2.96-6.98,5.23-11.24,6.58c-9.67,3.08-19.38,4.06-29-0.08c-8.96-3.86-13.59-11.48-13.14-21.2
			c0.48-10.24,5.31-17.1,14.95-20.01c5.33-1.61,10.94-2.29,16.45-3.25c4.48-0.78,9-1.35,13.49-2.03c0.58-0.09,1.17-0.23,1.73-0.41
			c3.48-1.1,6.2-2.92,6.64-6.95c0.44-4.05-0.95-7.21-4.45-9.41c-5.82-3.66-18.4-3.23-23.88,0.79C398.87,85.56,397.48,88.65,397,92.3
			z M429.15,108.02c-2.82,0.79-5.6,1.76-8.46,2.32c-3.16,0.62-6.4,0.8-9.59,1.3c-4.09,0.64-8.22,1.21-11.85,3.47
			c-4.04,2.53-5.33,6.36-4.99,10.85c0.3,3.95,3.1,6.06,6.4,7.3c7.28,2.74,14.51,2.4,21.34-1.45c3.8-2.14,6.81-5.23,7.09-9.84
			C429.37,117.26,429.15,112.52,429.15,108.02z"/>
		<path class="st1" d="M362.82,146.33c-5.88,0-11.47,0-17.23,0c0-0.81,0-1.51,0-2.22c0-15.17,0.1-30.33-0.08-45.5
			c-0.04-3.5-0.67-7.09-1.68-10.46c-1.47-4.95-5.4-7.16-10.36-7.87c-13.28-1.9-21.89,8.11-21.94,20.42
			c-0.05,14.44-0.01,28.88-0.01,43.32c0,0.72,0,1.44,0,2.28c-5.67,0-11.25,0-16.98,0c0-35.7,0-71.45,0-107.29
			c5.63,0,11.21,0,16.98,0c0,13.24,0,26.38,0,40.07c1.08-1.37,1.78-2.37,2.59-3.26c6.68-7.33,15.11-10,24.81-9.18
			c4.44,0.38,8.71,1.42,12.61,3.68c7.14,4.13,10.31,10.65,11.05,18.56c0.19,2.03,0.23,4.08,0.24,6.12
			c0.02,16.35,0.01,32.71,0.01,49.06C362.82,144.78,362.82,145.5,362.82,146.33z"/>
		<path class="st3" d="M957.81,80.21c0,22.57,0,45.15,0,67.89c-7.16,0-14.17,0-21.3,0c0-35.34,0-70.65,0-106.06
			c9.55,0,19.03,0,28.79,0c8.84,25.04,17.72,50.2,26.74,75.75c8.79-25.56,17.43-50.68,26.07-75.81c9.52,0,18.88,0,28.41,0
			c0,35.35,0,70.65,0,106.12c-6.92,0-13.87,0-21.12,0c0-22.51,0-45.05,0-67.59c-0.17-0.03-0.34-0.06-0.51-0.08
			c-0.81,2.18-1.63,4.36-2.41,6.55c-7.03,19.57-14.09,39.13-21.04,58.74c-0.71,2.02-1.64,2.7-3.77,2.61
			c-4.28-0.18-8.58-0.13-12.87-0.02c-1.56,0.04-2.29-0.39-2.84-1.93c-7.62-21.39-15.32-42.76-23-64.12
			c-0.26-0.71-0.56-1.41-0.84-2.11C958.01,80.17,957.91,80.19,957.81,80.21z M1042.26,46.46c-0.28-0.08-0.46-0.18-0.64-0.18
			c-6.41-0.01-12.81-0.05-19.22,0.04c-0.57,0.01-1.43,0.8-1.65,1.4c-1.51,4.07-2.88,8.2-4.29,12.31
			c-7.39,21.47-14.78,42.94-22.13,64.43c-0.43,1.26-0.98,1.74-2.36,1.73c-1.34-0.01-1.79-0.56-2.17-1.71
			c-1.23-3.68-2.57-7.33-3.86-10.99c-7.71-21.85-15.42-43.7-23.09-65.56c-0.44-1.24-0.98-1.78-2.37-1.7
			c-2.5,0.13-5.02,0.04-7.53,0.04c-4.01,0-8.02,0-12.05,0c0,32.67,0,65.13,0,97.61c4.23,0,8.29,0,12.59,0c0-26.25,0-52.39,0-78.51
			c3.85-0.28,3.87-0.29,5.08,3.07c8.85,24.59,17.7,49.17,26.5,73.78c0.48,1.33,1.05,1.87,2.5,1.8c2.57-0.12,5.16-0.16,7.72,0.01
			c1.71,0.11,2.36-0.57,2.91-2.09c8.77-24.55,17.6-49.07,26.41-73.6c1.15-3.2,1.16-3.19,4.51-3.03c0.12,0.01,0.23,0.1,0.61,0.29
			c0,26.01,0,52.14,0,78.26c4.34,0,8.4,0,12.54,0C1042.26,111.3,1042.26,78.89,1042.26,46.46z"/>
		<path class="st1" d="M534.31,122.01c-0.79,4.48-2.47,8.37-4.97,11.87c-7.46,10.42-17.99,14.56-30.45,14.61
			c-8.4,0.03-16.2-1.96-23.06-6.98c-7.14-5.22-11.33-12.41-13.3-20.88c-2.49-10.72-2.06-21.27,2.24-31.58
			c6.69-16.03,23.46-25.08,40.48-22.01c14.86,2.69,25.81,14.17,29.31,28.94c1.24,5.23,1.63,10.51,0.83,15.98
			c-19.02,0-37.95,0-56.86,0c-1.89,9.76,6.18,21.18,16.02,22.55c2.9,0.4,5.93,0.37,8.85,0.06c6.86-0.74,11.45-4.65,14.04-10.94
			c0.5-1.22,1.08-1.69,2.44-1.66C524.62,122.06,529.36,122.01,534.31,122.01z M518.12,100.52c-0.81-12.52-9.81-21.18-20.8-20.48
			c-12.53,0.79-19.43,12.29-18.85,20.48C491.68,100.52,504.9,100.52,518.12,100.52z"/>
		<path class="st2" d="M785.69,113.32c-18.08,0-36.01,0-53.94,0c-0.61,10.36,5.75,22.25,20.04,21.83
			c8.11-0.24,14.08-3.41,17.17-11.2c0.18-0.45,0.78-1.03,1.19-1.04c4.8-0.07,9.59-0.05,14.6-0.05c-1.03,5.27-3.23,9.68-6.5,13.56
			c-6.1,7.23-14.12,10.7-23.34,11.44c-9.99,0.8-19.33-1.14-27.25-7.74c-6.19-5.15-9.69-11.9-11.29-19.67
			c-2.28-11.1-1.57-21.91,3.93-32.05c6.76-12.49,18.97-18.75,32.28-18.19c17.19,0.71,29.91,13.61,32.88,30.29
			C786.19,104.66,786.48,108.85,785.69,113.32z M731.65,102.39c12.68,0,25.22,0,37.77,0c-1.03-12.63-9.99-20.38-20.87-19.27
			C739.19,84.08,731.08,93.21,731.65,102.39z"/>
		<path class="st2" d="M857.51,92.92c-5.37,0-10.71,0.01-16.04-0.03c-0.32,0-0.84-0.46-0.92-0.78c-1.42-6.23-6.11-8.4-11.69-8.78
			c-3.61-0.25-7.36,0.26-10.94,0.96c-2.78,0.54-5.14,2.18-5.56,5.43c-0.45,3.5,1.22,6.06,4.27,7.27c4.01,1.6,8.21,2.75,12.38,3.92
			c5.89,1.65,11.95,2.79,17.71,4.8c8.26,2.89,13.27,8.68,13.46,17.81c0.18,8.75-3.88,15.15-11.38,19.38
			c-8.23,4.64-17.21,5.63-26.44,4.92c-6.39-0.49-12.51-1.98-17.86-5.74c-6.75-4.75-9.94-11.34-10.03-19.65c5.45,0,10.77,0,15.91,0
			c0.79,2.18,1.32,4.38,2.35,6.31c1.85,3.45,5.24,4.97,8.85,5.75c5.31,1.15,10.66,0.96,15.82-0.8c3.29-1.12,6.12-2.94,6.39-6.95
			c0.27-3.97-1.25-6.91-5.45-8.45c-4.85-1.79-9.96-2.88-14.95-4.31c-5.25-1.5-10.66-2.6-15.68-4.67
			c-11.9-4.89-13.59-16.44-10.37-25.09c1.66-4.46,5.06-7.67,9.27-9.62c12.41-5.76,25.14-6.17,37.74-0.8
			c7.26,3.09,11.5,9.03,13.05,16.8c0.09,0.45,0.14,0.91,0.18,1.37C857.6,92.21,857.55,92.47,857.51,92.92z"/>
		<path class="st1" d="M280.56,117.19c-2.35,13.33-7.85,24.45-21.36,28.87c-15.2,4.97-29.67,3.41-41.67-8.36
			c-6.16-6.05-8.99-13.85-10.04-22.28c-1.25-10.01-0.29-19.77,4.13-28.94c5.53-11.47,14.86-17.84,27.4-19.54
			c7.98-1.08,15.82-0.36,23.31,2.73c10.87,4.48,17.01,12.92,18.14,24.84c-5.66,0-11.31,0-16.86,0c-0.85-2.24-1.4-4.59-2.57-6.58
			c-3.67-6.22-9.64-8.06-16.42-7.78c-13.71,0.56-18.5,10.87-19.87,20.1c-1.09,7.31-0.89,14.61,1.8,21.63
			c3.99,10.43,13.32,15.27,23.98,12.23c6.91-1.97,10.44-7.18,12.18-13.83c0.17-0.64,0.16-1.35,0.44-1.91
			c0.24-0.47,0.79-1.11,1.21-1.11C269.71,117.17,275.05,117.19,280.56,117.19z"/>
		<path class="st2" d="M877.36,84.28c-4.21,0-8.15,0-12.19,0c0-4.07,0-7.99,0-12.08c3.99,0,7.93,0,12.11,0c0-7.44,0-14.71,0-22.1
			c5.55,0,10.86,0,16.35,0c0,7.32,0,14.55,0,22.01c4.95,0,9.73,0,14.62,0c0,4.15,0,8.07,0,12.2c-4.85,0-9.63,0-14.6,0
			c0,0.84,0,1.49,0,2.13c0,12.2-0.01,24.4,0.01,36.61c0,1.78,0.09,3.56,0.32,5.32c0.45,3.52,2.34,5.26,5.92,5.39
			c2.75,0.11,5.5,0.02,8.36,0.02c0,3.81,0,7.87,0,12.09c-6.98,0.89-13.92,1.61-20.8-0.33c-6.19-1.75-9.09-6.17-9.65-12.34
			c-0.2-2.23-0.42-4.47-0.43-6.71c-0.04-13.26-0.02-26.52-0.02-39.77C877.36,85.99,877.36,85.28,877.36,84.28z"/>
		<path class="st1" d="M549.36,39.02c5.69,0,11.27,0,16.94,0c0,35.81,0,71.51,0,107.31c-5.66,0-11.24,0-16.94,0
			C549.36,110.61,549.36,74.91,549.36,39.02z"/>
		<path class="st3" d="M1310.99,142.9c-5.61,4.11-11.81,5.97-18.34,6.9c-7.2,1.03-14.23,0.44-20.86-2.76
			c-9.36-4.53-14.09-13.64-12.61-24.16c1.54-10.97,8.37-17.78,20.41-19.93c7.07-1.26,14.21-2.11,21.31-3.21
			c1.68-0.26,3.39-0.62,4.97-1.23c4.11-1.58,5.31-6.77,2.11-9.82c-1.44-1.37-3.53-2.35-5.49-2.81c-4.28-1-8.64-0.97-12.9,0.37
			c-4.43,1.4-6.97,4.32-7.26,9.04c-0.03,0.51-0.16,1.02-0.26,1.58c-6.81,0-13.52,0-20.22,0c-0.66-11.58,5.45-21.08,15.57-25.15
			c12.4-4.98,25.13-5.23,37.65-0.37c7.35,2.85,12.44,8.12,13.86,16.22c0.29,1.67,0.29,3.41,0.29,5.12
			c0.02,11.93-0.05,23.87,0.04,35.8c0.04,5.01-0.42,4.9,5.42,4.31c0.72-0.07,1.42-0.29,2.43-0.5c0,1.25,0,2.4,0,3.55
			c0,3.49,0.04,6.99-0.04,10.48c-0.01,0.58-0.38,1.53-0.8,1.67c-5.23,1.77-10.55,2.94-16.11,1.8
			C1316.14,148.96,1312.93,146.99,1310.99,142.9z M1332.78,137.35c-0.91,0-1.5,0.02-2.09,0c-3.28-0.11-5.11-1.76-5.52-5.03
			c-0.16-1.3-0.23-2.63-0.24-3.94c-0.02-12.13-0.09-24.27,0.01-36.4c0.06-7.42-3.45-12.51-9.81-15.86c-1.68-0.88-3.49-1.6-5.32-2.09
			c-9.21-2.45-18.43-2.2-27.55,0.42c-5.78,1.66-10.44,5.01-13.5,10.3c-1.38,2.39-2.23,4.95-2.35,7.81c4.1,0,7.98,0,11.91,0
			c1.63-6.76,6.4-9.87,12.77-11.11c4.27-0.83,8.57-0.74,12.77,0.27c2,0.48,4.01,1.4,5.7,2.57c3.74,2.58,4.85,6.36,4.24,10.77
			c-0.59,4.3-3.4,6.55-7.2,7.8c-1.8,0.59-3.7,0.94-5.59,1.23c-7.03,1.09-14.12,1.91-21.11,3.22c-9.9,1.86-15.08,7.02-16.4,15.71
			c-1.52,9.95,3.23,17.87,12.74,21.21c4.76,1.67,9.64,2.05,14.63,1.44c7.98-0.98,15.34-3.3,21.02-9.4c0.42-0.45,0.93-0.81,1.52-1.32
			c0.37,1.69,0.68,3.09,0.99,4.5c0.7,3.23,2.7,5.14,5.88,5.97c3.98,1.03,7.86,0.39,11.72-0.6c0.32-0.08,0.72-0.61,0.73-0.94
			C1332.82,141.77,1332.78,139.67,1332.78,137.35z"/>
		<path class="st3" d="M1132.59,115.54c-17.91,0-35.78,0-53.66,0c0.24,10.14,6.96,17,15.45,17.42c1.84,0.09,3.71,0.08,5.53-0.14
			c6.21-0.75,10.2-4.34,12.2-10.12c0.55-1.6,1.36-2.02,2.97-1.99c5.73,0.1,11.46,0.04,17.34,0.04c-1.39,9.04-5.43,16.32-12.47,21.92
			c-13.51,10.74-38.73,10.58-51.69-3.64c-5.43-5.96-8.36-13.03-9.57-20.88c-1.6-10.42-0.75-20.59,4.32-29.99
			c7.63-14.15,19.69-21.11,35.75-19.93c15.74,1.16,26.08,10.04,31.77,24.48c2.76,7,3.37,14.33,2.36,21.78
			C1132.85,114.8,1132.72,115.1,1132.59,115.54z M1128.86,111.17c0.45-5.02-0.12-9.75-1.49-14.39
			c-4.14-14.05-15.68-23.73-28.94-24.33c-15.34-0.69-27.47,6.91-33.07,20.83c-3.56,8.85-3.81,17.96-1.8,27.19
			c1.53,7.01,4.66,13.16,10.22,17.86c11.46,9.67,30.92,10.28,43,1.34c4.96-3.67,8.37-8.48,10.26-14.58c-3.55,0-6.9-0.04-10.25,0.05
			c-0.48,0.01-1.06,0.6-1.38,1.07c-1.04,1.51-1.84,3.22-3,4.63c-4.44,5.36-10.49,6.66-17.08,6.53
			c-13.19-0.26-23.36-12.99-20.7-26.18C1092.63,111.17,1110.69,111.17,1128.86,111.17z"/>
		<path class="st3" d="M1194.42,42.02c7.03,0,13.73,0,20.55,0c0,35.4,0,70.7,0,106.13c-6.49,0-12.93,0-19.58,0c0-1.71,0-3.38,0-4.93
			c-2.95,1.63-5.65,3.57-8.65,4.7c-16.9,6.32-41.8,0.85-47.73-26.27c-2.66-12.18-2.28-24.25,3.46-35.67
			c6.44-12.81,19.51-19.51,33.78-17.67c6.7,0.86,12.74,3.07,18.17,7.7C1194.42,64.51,1194.42,53.35,1194.42,42.02z M1210.61,143.87
			c0-32.56,0-65.02,0-97.48c-4,0-7.85,0-11.89,0c0,12.56,0,24.99,0,37.38c-2.29,0.49-3.88,0.11-5.09-1.99
			c-0.83-1.43-2.21-2.63-3.53-3.68c-10.88-8.66-35.12-9.56-44.41,11.03c-4.25,9.42-4.55,19.27-2.96,29.25
			c1.08,6.82,3.56,13.14,8.4,18.22c7.92,8.31,17.85,10.51,28.83,8.77c6.22-0.98,11.57-3.6,14.84-9.38c1.36-2.4,1.88-2.58,4.91-1.72
			c0,3.14,0,6.34,0,9.6C1203.45,143.87,1206.98,143.87,1210.61,143.87z"/>
		<path class="st1" d="M174.88,68.67c5.66,0,11.23,0,16.92,0c0,25.92,0,51.74,0,77.66c-5.62,0-11.2,0-16.92,0
			C174.88,120.47,174.88,94.61,174.88,68.67z"/>
		<path class="st4" d="M287.24,242.39c-3.04,13.74-6.08,27.48-9.15,41.32c-1.64,0-3.27,0-5.02,0c6.59-30.64,13.17-61.17,19.74-91.71
			c1.69,0,3.2,0,4.98,0c-0.9,4.22-1.79,8.34-2.66,12.42c2.11-2.33,4-4.78,6.26-6.84c8.27-7.57,22.42-9.44,32.03-4.36
			c6.83,3.61,10.48,9.57,11.63,16.95c2.28,14.57-0.7,27.99-10.27,39.44c-7.18,8.6-16.49,12.81-27.86,11.26
			c-9.43-1.29-15.03-7.25-18.38-15.72c-0.36-0.91-0.63-1.86-0.93-2.79C287.48,242.37,287.36,242.38,287.24,242.39z M289.86,233.22
			c0.2,1.65,0.22,3.59,0.68,5.42c2.16,8.5,6.71,15.24,15.58,17.5c9.17,2.34,17.14-0.74,23.39-7.64
			c9.3-10.25,12.51-22.56,10.74-36.06c-0.89-6.78-4.13-12.47-10.63-15.7c-8-3.97-18.95-2.09-26.06,4.56
			C294.4,209.87,290.77,220.81,289.86,233.22z"/>
		<path class="st4" d="M192.37,259.53c-1.75,0-3.32,0-5.01,0c1.15-4.96,2.28-9.81,3.45-14.84c-2.12,2.84-3.92,5.64-6.12,8.09
			c-6.23,6.94-14.29,9.12-23.3,8.21c-13.88-1.4-22.03-12.13-21.98-26.09c0.04-12.09,3.18-23.24,11.25-32.51
			c8.44-9.7,19.11-13.92,31.9-11.19c8.35,1.79,13.71,6.97,15.23,15.64c0.02,0.12,0.08,0.25,0.13,0.36c0.02,0.04,0.1,0.06,0.5,0.3
			c3-14.01,5.97-27.89,8.95-41.82c1.68,0,3.24,0,5.01,0C205.7,197,199.05,228.19,192.37,259.53z M144.39,233.92
			c0.08,1.32,0.11,2.64,0.24,3.95c0.61,6.42,2.63,12.09,8.41,15.77c6.52,4.16,20.14,5.74,29.11-3.82
			c10.15-10.82,14.07-23.91,13.13-38.46c-0.49-7.58-6.47-14.38-13.59-16.02c-6.94-1.59-13.56-0.28-19.48,3.63
			C149.69,207.23,145.08,219.61,144.39,233.92z"/>
		<path class="st4" d="M550.36,207.35c2.96-13.86,5.92-27.73,8.9-41.66c1.65,0,3.22,0,5.02,0c-6.67,31.28-13.31,62.47-19.99,93.79
			c-1.63,0-3.24,0-5.01,0c1.14-4.88,2.26-9.73,3.39-14.57c-0.09-0.04-0.18-0.07-0.27-0.11c-1.23,1.86-2.39,3.77-3.69,5.58
			c-9.38,13.05-27.14,13.11-36.64,6.73c-6.68-4.49-10-11.06-10.55-18.81c-0.95-13.29,2.19-25.59,11.03-35.87
			c8.44-9.81,19.22-14,32.07-11.2c8.26,1.8,13.55,6.99,15.07,15.57c0.03,0.18,0.13,0.34,0.2,0.51
			C550.04,207.32,550.2,207.34,550.36,207.35z M496.16,233.7c0.29,2.47,0.46,5.25,0.96,7.96c1.04,5.61,3.92,10.05,9.1,12.7
			c7.14,3.65,19.44,4.42,27.89-4.6c10.09-10.78,13.97-23.8,13.09-38.28c-0.46-7.5-6.4-14.4-13.5-16.09
			c-6.94-1.66-13.57-0.35-19.49,3.53C501.8,207.02,497.1,219.25,496.16,233.7z"/>
		<path class="st4" d="M1085.62,211.41c1.93-8.54,6.07-15.1,14.31-18.33c7.37-2.88,14.96-3.59,22.71-1.64
			c10.11,2.55,14.62,9.39,12.52,19.64c-2.17,10.57-4.74,21.06-7.1,31.59c-0.47,2.12-0.83,4.26-1.17,6.41
			c-0.83,5.13,1.24,7.12,6.27,6.07c0.45-0.09,0.89-0.2,1.64-0.37c-0.22,1.36-0.35,2.57-0.66,3.74c-0.1,0.36-0.67,0.79-1.07,0.85
			c-1.69,0.24-3.41,0.55-5.11,0.48c-3.92-0.17-6.64-3.58-6.22-7.61c0.14-1.36,0.44-2.71,0.38-4.22c-0.8,1.06-1.5,2.21-2.41,3.18
			c-7.86,8.38-17.59,11.22-28.77,9.44c-5.13-0.82-9.52-2.98-12.39-7.59c-6.38-10.24-1.8-23.92,9.49-28.21
			c6.09-2.31,12.52-2.35,18.9-2.83c4.53-0.34,9.1-0.65,13.54-1.57c7.41-1.53,10.23-5.11,10.13-11.92
			c-0.1-7.21-3.65-11.81-10.62-13.16c-6.69-1.3-13.27-0.86-19.45,2.38c-4.44,2.33-7.18,6.09-8.82,10.72
			c-1.05,2.97-1.02,2.98-4.16,2.96C1086.97,211.41,1086.39,211.41,1085.62,211.41z M1127.88,221.77c-1.84,0.79-3.5,1.86-5.3,2.2
			c-5.1,0.97-10.24,1.82-15.39,2.37c-5.88,0.62-11.85,0.48-17.49,2.75c-8.26,3.33-11.61,14.27-6.48,21.55
			c2.72,3.86,6.69,5.36,11.16,5.9c9.62,1.17,17.7-1.49,23.69-9.46C1123.72,239.55,1125.62,230.61,1127.88,221.77z M1122.6,247.57
			c-0.04-0.05-0.08-0.1-0.12-0.14c-0.04,0.05-0.12,0.09-0.12,0.14c0,0.05,0.07,0.1,0.11,0.14
			C1122.51,247.66,1122.55,247.62,1122.6,247.57z"/>
		<path class="st4" d="M360.31,226.32c-1.38,7.87-1,15.13,3.49,21.73c4.87,7.17,11.94,9.67,20.14,8.54
			c11.52-1.58,19.05-8.28,22.84-19.51c0.64,0,1.41,0,2.18,0c0.79,0,1.57,0,2.83,0c-1.01,2.49-1.77,4.79-2.85,6.93
			c-9.08,17.99-29.27,20.29-41.14,14.38c-8.19-4.08-12.17-11.26-12.94-19.98c-1.11-12.55,1.37-24.39,8.92-34.82
			c7.52-10.4,21.64-15.5,34.07-12.33c9.2,2.34,16.07,10.19,17.01,20.12c0.46,4.88,0.08,9.83,0.08,14.96
			C396.43,226.32,378.45,226.32,360.31,226.32z M410.11,221.97c0-2.91,0.23-5.63-0.04-8.29c-0.79-7.66-3.91-13.95-11.37-17.21
			c-4.81-2.1-9.86-2.17-14.95-1.12c-12.39,2.58-20.38,14.99-22.49,26.61C377.35,221.97,393.44,221.97,410.11,221.97z"/>
		<path class="st4" d="M570.34,226.33c-1.38,7.87-0.99,15.13,3.49,21.73c4.87,7.17,11.9,9.43,20.15,8.59
			c9.35-0.95,19.6-8.06,22.73-19.46c1.52,0,3.08,0,5.05,0c-0.97,2.38-1.72,4.68-2.8,6.82c-9.08,17.99-29.27,20.29-41.14,14.38
			c-8.19-4.08-12.17-11.26-12.94-19.99c-1.11-12.55,1.38-24.39,8.92-34.82c7.52-10.4,21.64-15.5,34.07-12.33
			c9.2,2.35,16.07,10.19,17.01,20.12c0.46,4.88,0.08,9.83,0.08,14.96C606.47,226.33,588.48,226.33,570.34,226.33z M571.12,221.91
			c16.3,0,32.44,0,49.02,0c0-2.91,0.14-5.67-0.03-8.41c-0.52-8.56-5.89-15.74-13.59-17.82c-8.26-2.23-16.02-0.85-22.79,4.49
			C576.73,205.68,573.23,213.33,571.12,221.91z"/>
		<path class="st4" d="M273.06,226.43c-18.66,0-36.6,0-54.6,0c-1.65,8.58-0.87,16.59,4.8,23.44c4.82,5.82,11.43,7.8,18.69,6.75
			c11.28-1.63,18.99-7.89,22.61-18.87c0.06-0.19,0.17-0.36,0.28-0.6c1.48,0,2.98,0,4.64,0c-0.04,0.44-0.02,0.88-0.14,1.28
			c-4.38,15.22-19.13,24.57-34.85,22.54c-13.11-1.7-20.99-11.46-21.67-24.02c-0.65-12.01,1.81-23.31,8.99-33.27
			c7.55-10.48,21.76-15.64,34.22-12.4c9.2,2.39,16.03,10.24,16.94,20.18C273.43,216.32,273.06,221.26,273.06,226.43z M267.85,221.99
			c0.18-1.83,0.43-3.46,0.48-5.1c0.31-10.28-4.72-18.37-13.33-21.06c-6.36-1.99-12.69-1.5-18.65,1.51
			c-10.1,5.1-14.44,14.26-17.2,24.65C235.44,221.99,251.53,221.99,267.85,221.99z"/>
		<path class="st4" d="M835.57,233.21c0.47-13.42,4.47-25,14.28-34.14c11.13-10.37,26.81-10.6,36.64-5.55
			c7.89,4.05,11.58,11.03,12.18,19.54c0.93,13.27-2.16,25.54-10.72,36.02c-10.42,12.76-26.32,14.86-38.58,9.4
			c-8.1-3.6-11.84-10.5-13.19-18.91C835.83,237.36,835.75,235.11,835.57,233.21z M840.52,232.93c0.39,2.61,0.6,5.52,1.27,8.32
			c1.4,5.83,4.61,10.42,10.06,13.24c8.34,4.31,20.27,2.93,27.72-3.92c12.4-11.39,16.31-25.77,13.06-42.01
			c-1.12-5.61-4.64-10.12-10.34-12.12c-8.2-2.88-16.31-2.44-23.79,2.11C845.78,206.28,841.33,218.53,840.52,232.93z"/>
		<path class="st4" d="M1187.74,236.65c1.8,0,3.31,0,5.05,0c0,1.66-0.06,3.29,0.01,4.91c0.28,6.84,3.71,11.36,10.29,13.38
			c6.74,2.08,13.54,2.9,20.35,0.27c3.33-1.29,6.11-3.31,8.27-6.2c3.22-4.31,2.6-11.02-1.39-14.8c-3.29-3.12-7.38-4.75-11.53-6.3
			c-4.13-1.54-8.32-2.94-12.33-4.74c-3.84-1.73-7.2-4.25-8.95-8.27c-3.14-7.19-0.16-16.43,6.8-20.28
			c10.1-5.58,20.53-5.85,30.87-0.68c6.94,3.47,9.79,10.42,7.95,18.32c-1.5,0-3.04,0-4.66,0c0-1.04-0.06-2.01,0.01-2.98
			c0.43-5.77-2.14-9.88-7.27-12.18c-7.86-3.53-15.9-3.47-23.42,0.73c-8.82,4.93-8.66,15.17,0.18,20.21
			c3.12,1.78,6.59,2.94,9.94,4.32c3.71,1.53,7.56,2.76,11.17,4.49c13.97,6.72,11.16,21.52,3.24,28.17c-4.58,3.85-9.97,5.54-15.81,6
			c-5.85,0.47-11.63-0.04-17.13-2.17c-7.15-2.77-10.98-8.14-11.61-15.74C1187.59,241.03,1187.74,238.93,1187.74,236.65z"/>
		<path class="st4" d="M1287.78,236.73c0.1,2.32,0.04,4.57,0.34,6.77c0.7,5.28,3.55,9.05,8.58,10.89
			c7.16,2.61,14.45,3.62,21.83,0.84c3.34-1.26,6.12-3.3,8.28-6.18c3.23-4.31,2.63-11.02-1.35-14.81c-3.28-3.13-7.38-4.76-11.52-6.31
			c-4.13-1.54-8.32-2.94-12.34-4.74c-3.84-1.72-7.2-4.24-8.97-8.26c-3.12-7.11-0.28-16.28,6.6-20.19c10.04-5.7,20.5-6.01,30.85-0.89
			c7.14,3.53,9.96,10.31,8.17,18.41c-1.5,0-3.04,0-4.67,0c0-1.07-0.06-2.11,0.01-3.14c0.37-5.5-2.04-9.51-6.9-11.82
			c-7.88-3.76-15.95-3.61-23.63,0.4c-8.42,4.39-9.32,15.19-0.03,20.34c3.14,1.74,6.6,2.94,9.94,4.31c3.71,1.53,7.56,2.76,11.17,4.49
			c14.04,6.74,11.19,21.65,3.14,28.29c-4.56,3.76-9.88,5.42-15.65,5.89c-5.85,0.47-11.62-0.03-17.13-2.16
			c-7.16-2.77-11-8.12-11.64-15.72c-0.18-2.08-0.03-4.19-0.03-6.4C1284.53,236.73,1286.09,236.73,1287.78,236.73z"/>
		<path class="st4" d="M954.18,259.54c-1.76,0-3.33,0-5,0c0.99-4.51,1.95-8.92,2.92-13.34c-0.16-0.09-0.33-0.18-0.49-0.26
			c-0.43,0.64-0.87,1.29-1.29,1.93c-3.69,5.6-8.33,10.09-14.94,11.98c-5.81,1.66-11.74,2.16-17.5-0.12
			c-8.24-3.25-12.95-11.35-11.31-20.19c2.25-12.16,4.97-24.24,7.51-36.34c0.78-3.73,1.66-7.44,2.5-11.17c1.69,0,3.26,0,5,0
			c-1.21,5.38-2.4,10.63-3.56,15.9c-2,9.06-4.13,18.1-5.88,27.21c-0.65,3.38-0.9,7.01-0.41,10.39c0.88,6.12,5.46,10.01,11.84,11.01
			c8.98,1.4,15.95-2.23,21.78-8.66c6.49-7.17,9.65-15.92,11.66-25.15c2.22-10.16,4.3-20.35,6.47-30.65c1.62,0,3.24,0,5.03,0
			C963.73,214.55,958.96,237,954.18,259.54z M952.18,245.54c-0.04-0.05-0.08-0.09-0.13-0.14c-0.04,0.05-0.09,0.09-0.13,0.14
			c0.06,0.05,0.13,0.09,0.19,0.14C952.14,245.64,952.16,245.59,952.18,245.54z"/>
		<path class="st4" d="M121.16,259.56c-1.68,0-3.25,0-5,0c1.65-7.33,3.35-14.54,4.88-21.79c1.8-8.56,3.65-17.13,5.13-25.75
			c1.59-9.27-3.78-16.09-13.09-17.09c-10.14-1.09-17.53,3.63-23.38,11.32c-6.23,8.19-8.93,17.77-10.85,27.68
			c-1.65,8.52-3.56,16.99-5.37,25.58c-1.63,0-3.19,0-5.02,0C73.23,236.97,78,214.49,82.78,192c1.68,0,3.19,0,4.99,0
			c-1.04,4.75-2.06,9.4-3.2,14.63c1.77-2.26,3.08-4.12,4.58-5.8c7.04-7.88,15.81-11.41,26.36-10.14
			c9.82,1.18,17.15,10.19,15.78,19.98c-1.12,8-2.93,15.92-4.51,23.85c-0.84,4.19-1.84,8.36-2.78,12.53
			C123.08,251.16,122.13,255.27,121.16,259.56z"/>
		<path class="st4" d="M472.67,259.54c-1.77,0-3.34,0-5.01,0c2.69-11.97,5.41-23.84,7.99-35.73c0.89-4.11,1.6-8.28,2.13-12.46
			c1.12-8.81-4.11-15.37-12.9-16.4c-10.3-1.2-17.8,3.52-23.74,11.36c-6.18,8.14-8.88,17.66-10.79,27.5
			c-1.62,8.34-3.46,16.63-5.21,24.94c-0.05,0.25-0.17,0.49-0.28,0.79c-1.6,0-3.16,0-4.93,0c4.79-22.55,9.55-45,14.33-67.5
			c1.67,0,3.22,0,4.99,0c-1.04,4.74-2.05,9.38-3.07,14.04c2.54-2.81,4.77-5.77,7.49-8.19c7.38-6.57,16.06-8.93,25.72-6.65
			c8.72,2.05,14.74,10.62,13.37,19.53c-1.44,9.36-3.49,18.62-5.41,27.9C475.93,245.61,474.26,252.52,472.67,259.54z"/>
		<path class="st4" d="M644.71,192.03c1.71,0,3.27,0,5,0c-1.04,4.73-2.06,9.35-3.08,13.96c0.12,0.07,0.24,0.14,0.37,0.21
			c0.45-0.65,0.88-1.3,1.34-1.94c4.16-5.85,9.35-10.43,16.36-12.46c7.41-2.16,14.77-2.46,21.37,2.42c5.55,4.1,8.11,9.88,7.12,16.59
			c-1.29,8.78-3.21,17.47-5.02,26.16c-1.57,7.53-3.36,15.01-5.06,22.57c-1.64,0-3.21,0-5,0c1.25-5.56,2.55-11.03,3.7-16.53
			c2.16-10.31,4.44-20.59,6.28-30.95c1.66-9.36-3.77-16.19-13.22-17.15c-10.14-1.04-17.49,3.74-23.32,11.45
			c-6.17,8.15-8.85,17.67-10.76,27.51c-1.66,8.52-3.55,17-5.37,25.61c-1.66,0-3.27,0-5.03,0
			C635.17,236.96,639.94,214.5,644.71,192.03z"/>
		<path class="st4" d="M1013.84,259.56c-1.74,0-3.25,0-5.02,0c4.79-22.54,9.55-44.98,14.33-67.5c1.63,0,3.18,0,4.99,0
			c-1.03,4.71-2.05,9.35-3.07,13.99c2.55-2.81,4.82-5.82,7.59-8.27c7.34-6.49,15.98-8.82,25.56-6.57
			c8.75,2.05,14.77,10.57,13.44,19.48c-1.31,8.78-3.21,17.47-5.02,26.17c-1.57,7.54-3.37,15.03-5.09,22.65c-1.62,0-3.24,0-5.01,0
			c1.77-7.87,3.61-15.67,5.27-23.5c1.69-7.98,3.38-15.97,4.74-24.02c1.56-9.26-3.81-16.08-13.12-17.07
			c-10.14-1.08-17.52,3.64-23.38,11.34c-6.23,8.19-8.92,17.77-10.84,27.69C1017.57,242.47,1015.66,250.94,1013.84,259.56z"/>
		<path class="st4" d="M770.05,230.03c1.85,0,3.62,0,5.43,0c-0.33,3.67-0.75,7.29-0.97,10.93c-0.22,3.67,0.65,7.07,3.11,9.93
			c2.13,2.48,4.85,4.04,7.98,4.85c7.18,1.85,14.14,1.87,20.32-2.95c4.06-3.17,6.39-7.61,7.6-12.43c2.71-10.78,5.14-21.63,7.57-32.47
			c3.13-13.99,6.15-28.01,9.24-42.13c1.91,0,3.78,0,5.81,0c-1.59,7.29-3.14,14.48-4.73,21.66c-3.56,16.06-6.99,32.15-10.79,48.15
			c-1.13,4.75-2.95,9.43-5.12,13.82c-3.15,6.38-8.61,10.21-15.6,11.64c-6.91,1.41-13.82,1.41-20.35-1.61
			c-6.83-3.16-10.35-8.75-10.77-16.22C768.53,238.74,768.87,234.36,770.05,230.03z"/>
		<path class="st3" d="M1249.41,148.16c-6.84,0-13.55,0-20.36,0c0-25.99,0-51.88,0-77.94c6.71,0,13.47,0,20.36,0
			C1249.41,96.11,1249.41,122.05,1249.41,148.16z M1233.36,74.46c0,23.22,0,46.25,0,69.4c0.66,0.04,1.24,0.11,1.81,0.11
			c3.28,0.01,6.56,0.01,9.92,0.01c0-23.3,0-46.37,0-69.52C1241.15,74.46,1237.34,74.46,1233.36,74.46z"/>
		<path class="st4" d="M1264.36,196.28c-4.37,0-8.45,0-12.72,0c0.34-1.49,0.65-2.83,0.99-4.32c4.19,0,8.32,0,12.52,0
			c1.56-7.15,3.09-14.13,4.62-21.13c1.69,0,3.25,0,5,0c-1.52,7.05-3.02,13.98-4.55,21.07c4.85,0,9.52,0,14.38,0
			c-0.14,0.77-0.3,1.37-0.35,1.98c-0.14,1.93-1.06,2.56-3.05,2.47c-3.88-0.18-7.77-0.05-11.8-0.05c-1.43,6.56-2.86,13.03-4.26,19.51
			c-2.25,10.42-4.5,20.84-6.73,31.27c-0.18,0.83-0.28,1.7-0.29,2.55c-0.03,3.02,1.26,4.84,4.24,5.23c2.66,0.35,5.38,0.2,8.08,0.23
			c0.84,0.01,1.69-0.13,2.74-0.21c-0.3,1.5-0.57,2.81-0.94,4.63c-3.49,0-7.06,0.29-10.56-0.06c-6.51-0.65-9.8-5.44-8.39-12.14
			c2.82-13.39,5.78-26.76,8.69-40.13C1262.76,203.64,1263.53,200.11,1264.36,196.28z"/>
		<path class="st4" d="M714.57,196.31c-4.15,0-8.23,0-12.58,0c0.36-1.55,0.68-2.92,1.01-4.38c4.19,0,8.27,0,12.5,0
			c1.55-7.06,3.07-14.04,4.62-21.1c1.63,0,3.19,0,4.99,0c-1.51,7-3,13.91-4.54,21.04c4.87,0,9.58,0,14.46,0
			c-0.39,1.61-0.73,2.99-1.07,4.42c-4.76,0-9.38,0-14.2,0c-1.03,4.7-2.06,9.36-3.07,14.03c-2.66,12.28-5.32,24.57-7.95,36.86
			c-0.18,0.83-0.26,1.7-0.26,2.55c0,2.92,1.28,4.73,4.15,5.11c2.72,0.35,5.51,0.2,8.27,0.23c0.84,0.01,1.68-0.11,2.65-0.19
			c-0.33,1.54-0.61,2.87-1,4.7c-3.08,0-6.17,0.07-9.25-0.01c-8.76-0.24-10.79-6.42-9.65-12.18c2.31-11.62,4.95-23.16,7.47-34.74
			c1.08-4.95,2.19-9.89,3.28-14.84C714.51,197.37,714.51,196.9,714.57,196.31z"/>
		<path class="st4" d="M50.47,259.56c-2,0-3.78,0-5.82,0c6.64-31.36,13.26-62.62,19.88-93.88c1.97,0,3.74,0,5.81,0
			C63.71,197.02,57.1,228.23,50.47,259.56z"/>
		<path class="st4" d="M976.07,259.53c-1.55,0-3.11,0-4.89,0c4.87-22.52,9.72-44.94,14.59-67.47c1.67,0,3.28,0,5,0
			c-1.15,5.11-2.27,10.13-3.4,15.15c4.41-6.92,9.38-13.03,17.48-15.66c4.1-1.33,9.37-1.57,12.22-0.65
			c-0.43,1.61-0.87,3.24-1.32,4.94c-4.21-0.74-8.26-0.57-12.14,0.99c-6.04,2.44-10.06,7.09-13.31,12.49
			c-4.7,7.8-6.7,16.55-8.67,25.28c-1.83,8.09-3.51,16.21-5.27,24.32C976.31,259.12,976.19,259.28,976.07,259.53z"/>
		<path class="st4" d="M1147.79,259.57c-1.7,0-3.21,0-5.03,0c6.55-31.35,13.08-62.59,19.62-93.88c1.67,0,3.24,0,5.03,0
			C1160.86,197,1154.34,228.2,1147.79,259.57z"/>
		<path class="st4" d="M1179.03,192.02c1.72,0,3.29,0,5.03,0c-4.7,22.54-9.37,44.97-14.07,67.5c-1.64,0-3.2,0-5.02,0
			C1169.66,237.03,1174.33,214.6,1179.03,192.02z"/>
		<path class="st4" d="M191.8,39.04c0,5.4,0,10.69,0,16.09c-5.68,0-11.25,0-16.94,0c0-5.36,0-10.66,0-16.09
			C180.48,39.04,186.1,39.04,191.8,39.04z"/>
		<path class="st3" d="M1229.04,42.03c6.89,0,13.6,0,20.41,0c0,6.53,0,12.96,0,19.53c-6.79,0-13.54,0-20.41,0
			C1229.04,55.05,1229.04,48.62,1229.04,42.03z M1233.33,57.24c4.06,0,7.92,0,11.75,0c0-3.71,0-7.28,0-10.85c-4,0-7.84,0-11.75,0
			C1233.33,50.05,1233.33,53.58,1233.33,57.24z"/>
		<path class="st4" d="M1184.57,165.69c1.69,0,3.25,0,5.02,0c-0.92,4.53-1.82,8.93-2.73,13.43c-1.62,0-3.16,0-5,0
			C1182.77,174.61,1183.67,170.17,1184.57,165.69z"/>
		<path fill="none" d="M429.15,108.02c0,4.5,0.22,9.24-0.06,13.95c-0.28,4.61-3.29,7.7-7.09,9.84c-6.83,3.85-14.06,4.19-21.34,1.45
			c-3.3-1.24-6.1-3.34-6.4-7.3c-0.34-4.49,0.95-8.32,4.99-10.85c3.62-2.27,7.75-2.83,11.85-3.47c3.19-0.5,6.43-0.68,9.59-1.3
			C423.54,109.78,426.32,108.81,429.15,108.02z"/>
		<path fill="none" d="M1042.26,46.46c0,32.43,0,64.84,0,97.39c-4.14,0-8.21,0-12.54,0c0-26.13,0-52.26,0-78.26
			c-0.38-0.19-0.49-0.28-0.61-0.29c-3.35-0.16-3.36-0.16-4.51,3.03c-8.82,24.53-17.65,49.06-26.41,73.6
			c-0.54,1.52-1.19,2.2-2.91,2.09c-2.56-0.17-5.15-0.13-7.72-0.01c-1.45,0.07-2.02-0.47-2.5-1.8c-8.8-24.6-17.65-49.19-26.5-73.78
			c-1.21-3.36-1.22-3.36-5.08-3.07c0,26.12,0,52.26,0,78.51c-4.3,0-8.36,0-12.59,0c0-32.47,0-64.93,0-97.61c4.04,0,8.04,0,12.05,0
			c2.51,0,5.02,0.1,7.53-0.04c1.4-0.08,1.94,0.46,2.37,1.7c7.67,21.86,15.39,43.71,23.09,65.56c1.29,3.66,2.64,7.31,3.86,10.99
			c0.38,1.14,0.84,1.7,2.17,1.71c1.38,0.01,1.93-0.46,2.36-1.73c7.35-21.49,14.74-42.96,22.13-64.43c1.41-4.11,2.78-8.23,4.29-12.31
			c0.22-0.61,1.08-1.4,1.65-1.4c6.4-0.09,12.81-0.05,19.22-0.04C1041.8,46.28,1041.98,46.38,1042.26,46.46z"/>
		<path fill="none" d="M518.12,100.52c-13.23,0-26.44,0-39.66,0c-0.57-8.2,6.32-19.69,18.85-20.48
			C508.31,79.35,517.31,88.01,518.12,100.52z"/>
		<path fill="none" d="M731.65,102.39c-0.58-9.17,7.54-18.31,16.9-19.27c10.89-1.12,19.84,6.64,20.87,19.27
			C756.88,102.39,744.34,102.39,731.65,102.39z"/>
		<path fill="none" d="M1332.78,137.35c0,2.32,0.03,4.42-0.03,6.51c-0.01,0.33-0.42,0.86-0.73,0.94c-3.86,0.99-7.74,1.63-11.72,0.6
			c-3.18-0.82-5.19-2.73-5.88-5.97c-0.3-1.41-0.62-2.81-0.99-4.5c-0.6,0.51-1.1,0.88-1.52,1.32c-5.68,6.1-13.04,8.43-21.02,9.4
			c-4.99,0.61-9.88,0.23-14.63-1.44c-9.51-3.34-14.27-11.26-12.74-21.21c1.33-8.69,6.5-13.85,16.4-15.71
			c6.99-1.32,14.08-2.13,21.11-3.22c1.88-0.29,3.78-0.64,5.59-1.23c3.8-1.25,6.61-3.5,7.2-7.8c0.6-4.41-0.51-8.19-4.24-10.77
			c-1.7-1.17-3.7-2.09-5.7-2.57c-4.2-1.01-8.5-1.1-12.77-0.27c-6.37,1.24-11.14,4.35-12.77,11.11c-3.93,0-7.81,0-11.91,0
			c0.12-2.86,0.97-5.42,2.35-7.81c3.06-5.3,7.72-8.64,13.5-10.3c9.12-2.62,18.34-2.87,27.55-0.42c1.83,0.49,3.64,1.21,5.32,2.09
			c6.37,3.34,9.88,8.43,9.81,15.86c-0.1,12.13-0.03,24.27-0.01,36.4c0,1.32,0.07,2.64,0.24,3.94c0.41,3.28,2.24,4.92,5.52,5.03
			C1331.28,137.36,1331.87,137.35,1332.78,137.35z M1312.84,105.08c-3.66,2.89-7.42,4.48-11.69,4.86c-2.49,0.22-5.03,0.36-7.45,0.93
			c-4.08,0.96-8.3,1.76-12.06,3.5c-4.88,2.25-6.58,6.86-6.28,12.04c0.29,4.98,3.6,7.79,7.94,9.36c6.88,2.49,13.77,2.24,20.39-0.94
			c4.79-2.31,8.63-5.84,9.06-11.4C1313.19,117.49,1312.84,111.48,1312.84,105.08z"/>
		<path fill="none" d="M1128.86,111.17c-18.17,0-36.23,0-54.25,0c-2.66,13.2,7.51,25.93,20.7,26.18c6.6,0.13,12.64-1.17,17.08-6.53
			c1.16-1.4,1.96-3.11,3-4.63c0.32-0.47,0.9-1.05,1.38-1.07c3.35-0.09,6.71-0.05,10.25-0.05c-1.88,6.11-5.29,10.91-10.26,14.58
			c-12.08,8.94-31.54,8.34-43-1.34c-5.56-4.7-8.69-10.84-10.22-17.86c-2.01-9.23-1.76-18.34,1.8-27.19
			c5.61-13.92,17.74-21.53,33.07-20.83c13.26,0.6,24.8,10.28,28.94,24.33C1128.74,101.41,1129.31,106.15,1128.86,111.17z
			 M1116.82,104.73c-0.44-8.52-2.81-15.99-10.35-20.7c-7.37-4.6-15.06-4.28-22.25,0.29c-7.29,4.64-10.03,11.84-9.92,20.41
			C1088.51,104.73,1102.54,104.73,1116.82,104.73z"/>
		<path fill="none" d="M1210.61,143.87c-3.63,0-7.17,0-10.9,0c0-3.26,0-6.46,0-9.6c-3.03-0.86-3.55-0.69-4.91,1.72
			c-3.27,5.78-8.62,8.39-14.84,9.38c-10.99,1.74-20.91-0.47-28.83-8.77c-4.84-5.08-7.31-11.4-8.4-18.22
			c-1.59-9.99-1.29-19.83,2.96-29.25c9.29-20.59,33.53-19.69,44.41-11.03c1.33,1.06,2.71,2.25,3.53,3.68
			c1.21,2.1,2.8,2.48,5.09,1.99c0-12.39,0-24.81,0-37.38c4.04,0,7.9,0,11.89,0C1210.61,78.86,1210.61,111.31,1210.61,143.87z
			 M1199.4,108.66c-0.08-1.51-0.11-3.03-0.27-4.54c-0.72-6.86-2.85-13.09-8.04-17.98c-8.19-7.74-27.61-8.78-34.58,8.82
			c-3.58,9.05-3.73,18.42-0.44,27.65c3.18,8.93,10.46,14.45,18.93,14.72c10.05,0.32,17.27-4.22,21.41-13.47
			C1198.58,119.02,1199.32,113.91,1199.4,108.66z"/>
		<path fill="none" d="M289.86,233.22c0.91-12.41,4.54-23.36,13.69-31.91c7.11-6.65,18.06-8.53,26.06-4.56
			c6.5,3.22,9.75,8.92,10.63,15.7c1.77,13.51-1.44,25.81-10.74,36.06c-6.26,6.89-14.22,9.98-23.39,7.64
			c-8.86-2.26-13.42-9-15.58-17.5C290.07,236.82,290.05,234.87,289.86,233.22z"/>
		<path fill="none" d="M144.39,233.92c0.68-14.32,5.3-26.7,17.82-34.96c5.92-3.91,12.54-5.22,19.48-3.63
			c7.12,1.63,13.1,8.43,13.59,16.02c0.95,14.54-2.97,27.63-13.13,38.46c-8.97,9.56-22.59,7.98-29.11,3.82
			c-5.77-3.68-7.79-9.35-8.41-15.77C144.51,236.56,144.47,235.24,144.39,233.92z"/>
		<path fill="none" d="M496.16,233.7c0.94-14.46,5.64-26.68,18.04-34.8c5.92-3.88,12.56-5.18,19.49-3.53
			c7.1,1.69,13.05,8.6,13.5,16.09c0.88,14.48-3,27.51-13.09,38.28c-8.44,9.02-20.75,8.26-27.89,4.6c-5.18-2.65-8.06-7.08-9.1-12.7
			C496.62,238.95,496.45,236.18,496.16,233.7z"/>
		<path fill="none" d="M1127.88,221.77c-2.26,8.83-4.15,17.78-9.82,25.32c-5.99,7.96-14.07,10.63-23.69,9.46
			c-4.47-0.54-8.44-2.04-11.16-5.9c-5.12-7.28-1.78-18.22,6.48-21.55c5.64-2.27,11.61-2.12,17.49-2.75
			c5.16-0.55,10.3-1.4,15.39-2.37C1124.37,223.64,1126.03,222.56,1127.88,221.77z"/>
		<path fill="none" d="M1122.6,247.57c-0.04,0.05-0.09,0.09-0.13,0.14c-0.04-0.05-0.12-0.1-0.11-0.14c0-0.05,0.08-0.09,0.12-0.14
			C1122.51,247.48,1122.56,247.52,1122.6,247.57z"/>
		<path fill="none" d="M410.11,221.97c-16.68,0-32.77,0-48.86,0c2.11-11.62,10.1-24.03,22.49-26.61c5.09-1.06,10.13-0.99,14.95,1.12
			c7.46,3.26,10.58,9.55,11.37,17.21C410.35,216.34,410.11,219.06,410.11,221.97z"/>
		<path fill="none" d="M571.12,221.91c2.11-8.58,5.61-16.23,12.61-21.74c6.77-5.33,14.52-6.72,22.79-4.49
			c7.71,2.08,13.08,9.25,13.59,17.82c0.17,2.74,0.03,5.5,0.03,8.41C603.55,221.91,587.41,221.91,571.12,221.91z"/>
		<path fill="none" d="M267.85,221.99c-16.33,0-32.42,0-48.7,0c2.76-10.38,7.1-19.55,17.2-24.65c5.96-3.01,12.28-3.5,18.65-1.51
			c8.6,2.69,13.64,10.78,13.33,21.06C268.29,218.52,268.03,220.16,267.85,221.99z"/>
		<path fill="none" d="M840.52,232.93c0.81-14.4,5.26-26.64,18-34.39c7.48-4.55,15.6-4.99,23.79-2.11c5.7,2,9.21,6.52,10.34,12.12
			c3.25,16.24-0.66,30.62-13.06,42.01c-7.45,6.85-19.39,8.23-27.72,3.92c-5.45-2.82-8.66-7.4-10.06-13.24
			C841.12,238.45,840.91,235.54,840.52,232.93z"/>
		<path fill="none" d="M952.18,245.54c-0.02,0.05-0.04,0.09-0.07,0.14c-0.06-0.05-0.13-0.09-0.19-0.14
			c0.04-0.05,0.09-0.09,0.13-0.14C952.09,245.45,952.14,245.5,952.18,245.54z"/>
		<path fill="none" d="M1233.36,74.46c3.98,0,7.79,0,11.73,0c0,23.15,0,46.22,0,69.52c-3.36,0-6.64,0.01-9.92-0.01
			c-0.58,0-1.15-0.07-1.81-0.11C1233.36,120.7,1233.36,97.67,1233.36,74.46z"/>
		<path fill="none" d="M1233.33,57.24c0-3.65,0-7.18,0-10.85c3.91,0,7.75,0,11.75,0c0,3.56,0,7.14,0,10.85
			C1241.25,57.24,1237.4,57.24,1233.33,57.24z"/>
		<path class="st3" d="M1312.84,105.08c0,6.4,0.35,12.41-0.1,18.35c-0.42,5.56-4.26,9.09-9.06,11.4
			c-6.61,3.18-13.51,3.43-20.39,0.94c-4.35-1.57-7.65-4.38-7.94-9.36c-0.3-5.17,1.4-9.79,6.28-12.04c3.76-1.73,7.98-2.54,12.06-3.5
			c2.42-0.57,4.96-0.7,7.45-0.93C1305.42,109.57,1309.18,107.98,1312.84,105.08z M1308.52,113.09c-4.98,0.71-9.83,1.21-14.59,2.13
			c-3.52,0.68-7.08,1.56-10.36,2.97c-3.17,1.36-4.04,4.52-3.93,7.81c0.1,3.01,2.17,4.64,4.66,5.55c6.66,2.43,13.2,2.19,19.33-1.66
			c2.52-1.58,4.61-3.74,4.83-6.87C1308.71,119.69,1308.52,116.32,1308.52,113.09z"/>
		<path class="st3" d="M1116.82,104.73c-14.28,0-28.31,0-42.52,0c-0.1-8.57,2.63-15.77,9.92-20.41c7.18-4.58,14.88-4.9,22.25-0.29
			C1114.01,88.73,1116.38,96.21,1116.82,104.73z M1079.04,100.4c11.03,0,21.94,0,32.87,0c-0.64-8.51-7.88-15.28-16.17-15.21
			C1086.97,85.27,1079.42,92.06,1079.04,100.4z"/>
		<path class="st3" d="M1199.4,108.66c-0.08,5.25-0.82,10.37-2.98,15.2c-4.14,9.25-11.36,13.79-21.41,13.47
			c-8.47-0.27-15.75-5.79-18.93-14.72c-3.29-9.23-3.14-18.61,0.44-27.65c6.97-17.6,26.39-16.56,34.58-8.82
			c5.18,4.9,7.31,11.12,8.04,17.98C1199.29,105.62,1199.31,107.14,1199.4,108.66z M1195.08,108.68c-0.16-5.23-0.77-10.43-3.52-15.15
			c-5.07-8.72-17.09-11.16-25.1-5.05c-4.37,3.34-6.52,8-7.48,13.28c-1.38,7.62-1.26,15.11,2.42,22.15c2.94,5.61,7.55,8.8,14.03,9.11
			c6.83,0.33,12.01-2.39,15.59-8.19C1194.07,119.91,1194.94,114.43,1195.08,108.68z"/>
		<path fill="none" d="M1308.52,113.09c0,3.24,0.19,6.6-0.05,9.93c-0.23,3.12-2.31,5.28-4.83,6.87c-6.13,3.85-12.67,4.09-19.33,1.66
			c-2.49-0.91-4.56-2.54-4.66-5.55c-0.11-3.29,0.76-6.44,3.93-7.81c3.28-1.41,6.84-2.29,10.36-2.97
			C1298.7,114.3,1303.54,113.79,1308.52,113.09z"/>
		<path fill="none" d="M1079.04,100.4c0.39-8.34,7.93-15.14,16.69-15.21c8.29-0.07,15.53,6.7,16.17,15.21
			C1100.98,100.4,1090.07,100.4,1079.04,100.4z"/>
		<path fill="none" d="M1195.08,108.68c-0.14,5.74-1.01,11.23-4.05,16.16c-3.57,5.8-8.75,8.51-15.59,8.19
			c-6.48-0.31-11.09-3.5-14.03-9.11c-3.69-7.04-3.8-14.53-2.42-22.15c0.95-5.29,3.11-9.94,7.48-13.28
			c8.01-6.12,20.03-3.68,25.1,5.05C1194.31,98.25,1194.92,103.45,1195.08,108.68z"/>
	</g>
</g>
</svg>
